<?xml version="1.0" ?><!DOCTYPE svg  PUBLIC '-//W3C//DTD SVG 1.1//EN'  'http://www.w3.org/Graphics/SVG/1.1/DTD/svg11.dtd'><svg enable-background="new 0 0 100 100" height="100px" id="Layer_1" version="1.1" viewBox="0 0 100 100" width="100px" xml:space="preserve" xmlns="http://www.w3.org/2000/svg" xmlns:xlink="http://www.w3.org/1999/xlink"><g><path d="M53,65.5h-6c-1.381,0-2.5,1.119-2.5,2.5s1.119,2.5,2.5,2.5h6c1.381,0,2.5-1.119,2.5-2.5S54.381,65.5,53,65.5z"/><path d="M79.5,51c0-6.334-2.926-11.505-7-13.03V10c0-1.381-1.119-2.5-2.5-2.5h-8c-1.381,0-2.5,1.119-2.5,2.5v7.458h-2.67V10   c0-1.381-1.119-2.5-2.5-2.5H46c-1.381,0-2.5,1.119-2.5,2.5v7.5h-3V10c0-1.381-1.119-2.5-2.5-2.5h-8c-1.381,0-2.5,1.119-2.5,2.5   v27.97c-4.074,1.525-7,6.696-7,13.03s2.926,11.505,7,13.03V90c0,1.381,1.119,2.5,2.5,2.5h40c1.381,0,2.5-1.119,2.5-2.5V64.03   C76.574,62.505,79.5,57.334,79.5,51z M32.5,32.5h35v5H53c-1.381,0-2.5,1.119-2.5,2.5v14.5h-1V40c0-1.381-1.119-2.5-2.5-2.5H32.5   V32.5z M32.5,42.5h3c0,1.654,1.346,3,3,3s3-1.346,3-3h3v13.465l-2.5,2.5l-9.5-9.5V42.5z M42.5,65.036l5.535-5.536h3.93l5.535,5.536   V77.5h-15V65.036z M55.5,55.964V42.5h3c0,1.654,1.346,3,3,3s3-1.346,3-3h3v6.465l-9.5,9.5L55.5,55.964z M35.5,12.5V20   c0,1.381,1.119,2.5,2.5,2.5h8c1.381,0,2.5-1.119,2.5-2.5v-7.5h3.33v7.458c0,1.381,1.119,2.5,2.5,2.5H62c1.381,0,2.5-1.119,2.5-2.5   V12.5h3v15h-35v-15H35.5z M25.5,51c0-2.918,0.857-5.387,2-6.901v13.801C26.357,56.387,25.5,53.918,25.5,51z M67.5,87.5h-35V56.035   L38.465,62l-0.232,0.232C37.764,62.701,37.5,63.337,37.5,64v16c0,1.381,1.119,2.5,2.5,2.5h20c1.381,0,2.5-1.119,2.5-2.5V64   c0-0.663-0.264-1.299-0.732-1.768L61.535,62l5.965-5.965V87.5z M72.5,57.901V44.099c1.143,1.514,2,3.982,2,6.901   S73.643,56.387,72.5,57.901z"/></g></svg>